# xmcd
#
# Track frame offsets: 
#        150
#        16397
#        38117
#        58205
#        78125
#        82082
#        100722
#        119240
#        138157
#        145090
#        170050
#        190687
#        192057
#        205567
#        229970
#        249612
#        272207
#        293420
#        311912
#
# Disc length: 4616 seconds
#
# Revision: 4
# Processed by: cddbd v1.5.2PL0 Copyright (c) Steve Scherf et al.
# Submitted via: ExactAudioCopyFreeDBPlugin 1.0
#
DISCID=10120613
DTITLE=Earth, Wind and Fire - The Eternal Dance [box set]
DYEAR=1992
DGENRE=SMB
TTITLE0=September
TTITLE1=Boogie Wonderland (with The Emotions)
TTITLE2=After the Love is Gone
TTITLE3=In the Stone
TTITLE4=Dirty (Interlude) (with Jr. Wells)
TTITLE5=Let Me Talk
TTITLE6=And Love Goes On
TTITLE7=Pride
TTITLE8=Demo
TTITLE9=Let's Groove
TTITLE10=Wanna Be with You
TTITLE11=Little Girl (Interlude)
TTITLE12=Night Dreamin'
TTITLE13=Fall in Love with Me
TTITLE14=Magnetic
TTITLE15=System of Survival
TTITLE16=Thinking of You
TTITLE17=Gotta Find Out
TTITLE18=That's the Way of the World (live)
EXTD=
EXTT0=
EXTT1=
EXTT2=
EXTT3=
EXTT4=
EXTT5=
EXTT6=
EXTT7=
EXTT8=
EXTT9=
EXTT10=
EXTT11=
EXTT12=
EXTT13=
EXTT14=
EXTT15=
EXTT16=
EXTT17=
EXTT18=
PLAYORDER=
